<?xml version="1.0" encoding="UTF-8" standalone="no"?>
<!DOCTYPE svg PUBLIC "-//W3C//DTD SVG 1.1//EN"
 "http://www.w3.org/Graphics/SVG/1.1/DTD/svg11.dtd">
<!-- Generated by graphviz version 14.1.5 (20260411.2331)
 -->
<!-- Pages: 1 -->
<svg width="974pt" height="221pt"
 viewBox="0.00 0.00 974.00 221.00" xmlns="http://www.w3.org/2000/svg" xmlns:xlink="http://www.w3.org/1999/xlink">
<g id="graph0" class="graph" transform="scale(1 1) rotate(0) translate(4 217.38)">
<polygon fill="white" stroke="none" points="-4,4 -4,-217.38 970,-217.38 970,4 -4,4"/>
<!-- p({print bill}, {deliver bill}) -->
<g id="node1" class="node">
<title>p({print bill}, {deliver bill})</title>
<ellipse fill="none" stroke="black" cx="692.75" cy="-37.62" rx="18" ry="18"/>
<text xml:space="preserve" text-anchor="middle" x="692.75" y="-32.58" font-family="Times,serif" font-size="14.00"> </text>
<text xml:space="preserve" text-anchor="middle" x="668" y="-6.33" font-family="Times,serif" font-size="14.00">p1</text>
</g>
<!-- deliver bill -->
<g id="node6" class="node">
<title>deliver bill</title>
<polygon fill="none" stroke="black" points="858,-75.25 782.75,-75.25 782.75,0 858,0 858,-75.25"/>
<text xml:space="preserve" text-anchor="middle" x="820.38" y="-32.58" font-family="Times,serif" font-size="14.00">deliver bill</text>
</g>
<!-- p({print bill}, {deliver bill})&#45;&gt;deliver bill -->
<g id="edge3" class="edge">
<title>p({print bill}, {deliver bill})&#45;&gt;deliver bill</title>
<path fill="none" stroke="black" d="M711.22,-37.62C726.69,-37.62 750.02,-37.62 771.06,-37.62"/>
<polygon fill="black" stroke="black" points="770.93,-41.13 780.93,-37.63 770.93,-34.13 770.93,-41.13"/>
</g>
<!-- p({write bill}, {print bill}) -->
<g id="node2" class="node">
<title>p({write bill}, {print bill})</title>
<ellipse fill="none" stroke="black" cx="449.5" cy="-37.62" rx="18" ry="18"/>
<text xml:space="preserve" text-anchor="middle" x="449.5" y="-32.58" font-family="Times,serif" font-size="14.00"> </text>
<text xml:space="preserve" text-anchor="middle" x="424.75" y="-6.33" font-family="Times,serif" font-size="14.00">p2</text>
</g>
<!-- print bill -->
<g id="node7" class="node">
<title>print bill</title>
<polygon fill="none" stroke="black" points="602.75,-69.25 539.5,-69.25 539.5,-6 602.75,-6 602.75,-69.25"/>
<text xml:space="preserve" text-anchor="middle" x="571.12" y="-32.58" font-family="Times,serif" font-size="14.00">print bill</text>
</g>
<!-- p({write bill}, {print bill})&#45;&gt;print bill -->
<g id="edge5" class="edge">
<title>p({write bill}, {print bill})&#45;&gt;print bill</title>
<path fill="none" stroke="black" d="M467.89,-37.62C483.57,-37.62 507.25,-37.62 527.87,-37.62"/>
<polygon fill="black" stroke="black" points="527.75,-41.13 537.75,-37.63 527.75,-34.13 527.75,-41.13"/>
</g>
<!-- iL -->
<g id="node3" class="node">
<title>iL</title>
<ellipse fill="none" stroke="black" cx="111" cy="-37.62" rx="18" ry="18"/>
<text xml:space="preserve" text-anchor="middle" x="111" y="-32.58" font-family="Times,serif" font-size="14.00"> </text>
<text xml:space="preserve" text-anchor="middle" x="87" y="-6.33" font-family="Times,serif" font-size="14.00">iL</text>
</g>
<!-- write bill -->
<g id="node8" class="node">
<title>write bill</title>
<polygon fill="none" stroke="black" points="359.5,-70.38 294,-70.38 294,-4.88 359.5,-4.88 359.5,-70.38"/>
<text xml:space="preserve" text-anchor="middle" x="326.75" y="-32.58" font-family="Times,serif" font-size="14.00">write bill</text>
</g>
<!-- iL&#45;&gt;write bill -->
<g id="edge1" class="edge">
<title>iL&#45;&gt;write bill</title>
<path fill="none" stroke="black" d="M129.49,-37.62C162.58,-37.62 235.23,-37.62 282.26,-37.62"/>
<polygon fill="black" stroke="black" points="282.11,-41.13 292.11,-37.63 282.11,-34.13 282.11,-41.13"/>
</g>
<!-- oL -->
<g id="node4" class="node">
<title>oL</title>
<ellipse fill="none" stroke="black" cx="948" cy="-37.62" rx="18" ry="18"/>
<text xml:space="preserve" text-anchor="middle" x="948" y="-32.58" font-family="Times,serif" font-size="14.00"> </text>
<text xml:space="preserve" text-anchor="middle" x="922.5" y="-6.33" font-family="Times,serif" font-size="14.00">oL</text>
</g>
<!-- net -->
<g id="node5" class="node">
<title>net</title>
<polygon fill="none" stroke="black" points="11,-183.88 11,-206.38 46.25,-206.38 46.25,-183.88 11,-183.88"/>
<text xml:space="preserve" text-anchor="start" x="14" y="-190.62" font-family="Times,serif" font-size="14.00">Place</text>
<polygon fill="none" stroke="black" points="48.25,-183.88 48.25,-206.38 211,-206.38 211,-183.88 48.25,-183.88"/>
<text xml:space="preserve" text-anchor="start" x="127.75" y="-190.62" font-family="Times,serif" font-size="14.00"> </text>
<polygon fill="none" stroke="black" points="11,-159.38 11,-181.88 46.25,-181.88 46.25,-159.38 11,-159.38"/>
<text xml:space="preserve" text-anchor="start" x="21.88" y="-166.12" font-family="Times,serif" font-size="14.00">p1</text>
<polygon fill="none" stroke="black" points="48.25,-159.38 48.25,-181.88 211,-181.88 211,-159.38 48.25,-159.38"/>
<text xml:space="preserve" text-anchor="start" x="51.25" y="-166.12" font-family="Times,serif" font-size="14.00">p({print bill}, {deliver bill})</text>
<polygon fill="none" stroke="black" points="11,-134.88 11,-157.38 46.25,-157.38 46.25,-134.88 11,-134.88"/>
<text xml:space="preserve" text-anchor="start" x="21.88" y="-141.62" font-family="Times,serif" font-size="14.00">p2</text>
<polygon fill="none" stroke="black" points="48.25,-134.88 48.25,-157.38 211,-157.38 211,-134.88 48.25,-134.88"/>
<text xml:space="preserve" text-anchor="start" x="56.12" y="-141.62" font-family="Times,serif" font-size="14.00">p({write bill}, {print bill})</text>
<polygon fill="none" stroke="black" points="8,-131.88 8,-209.38 214,-209.38 214,-131.88 8,-131.88"/>
</g>
<!-- deliver bill&#45;&gt;oL -->
<g id="edge6" class="edge">
<title>deliver bill&#45;&gt;oL</title>
<path fill="none" stroke="black" d="M858.39,-37.62C877.56,-37.62 900.61,-37.62 918.39,-37.62"/>
<polygon fill="black" stroke="black" points="918.24,-41.13 928.24,-37.63 918.24,-34.13 918.24,-41.13"/>
</g>
<!-- print bill&#45;&gt;p({print bill}, {deliver bill}) -->
<g id="edge2" class="edge">
<title>print bill&#45;&gt;p({print bill}, {deliver bill})</title>
<path fill="none" stroke="black" d="M603.24,-37.62C621.78,-37.62 645.14,-37.62 663.2,-37.62"/>
<polygon fill="black" stroke="black" points="662.96,-41.13 672.96,-37.63 662.96,-34.13 662.96,-41.13"/>
</g>
<!-- write bill&#45;&gt;p({write bill}, {print bill}) -->
<g id="edge4" class="edge">
<title>write bill&#45;&gt;p({write bill}, {print bill})</title>
<path fill="none" stroke="black" d="M359.79,-37.62C378.5,-37.62 401.91,-37.62 419.98,-37.62"/>
<polygon fill="black" stroke="black" points="419.73,-41.13 429.73,-37.63 419.73,-34.13 419.73,-41.13"/>
</g>
</g>
</svg>
